# xmcd CD database file
#
# Track frame offsets:
#	150
#	36493
#	58840
#	107259
#	133018
#	154077
#
# Disc length: 2392 seconds
#
# Revision: 0
# Processed by: cddbd v1.5.1PL2 Copyright (c) Steve Scherf et al.
# Submitted via: CDex 1.51
#
DISCID=4c095606
DTITLE=Bob Ravenscroft - Three Alone
DYEAR=2004
DGENRE=Jazz
TTITLE0=Re: A Person I Met
TTITLE1=Phil's Fill
TTITLE2=Infant Eyes
TTITLE3=The Love
TTITLE4=The Witness
TTITLE5=Time Remembered
EXTD=YEAR: 2004
EXTT0=
EXTT1=
EXTT2=
EXTT3=
EXTT4=
EXTT5=
PLAYORDER=
